# xmcd
#
# Track frame offsets:
#	150
#	14339
#	30131
#	43397
#	60953
#	80737
#	99046
#	119286
#	133399
#	146785
#	176398
#
# Disc length: 2631 seconds
#
# Revision: 2
# Processed by: cddbd v1.5.2PL0 Copyright (c) Steve Scherf et al.
# Submitted via: audiograbber 1.83.01
#
DISCID=8c0a450b
DTITLE=Jackie Oates - Hyperboreans
DYEAR=2009
DGENRE=Folk
TTITLE0=The Miller And His Three Sons
TTITLE1=Hyperboreans
TTITLE2=Locks And Bolts
TTITLE3=The Pleasant Month Of May
TTITLE4=Past Caring
TTITLE5=The Sheffield Grinder
TTITLE6=Young Leonard
TTITLE7=Birthday
TTITLE8=The Isle Of France
TTITLE9=Butchers Boy
TTITLE10=May The Kindness
EXTD=
EXTT0=
EXTT1=
EXTT2=
EXTT3=
EXTT4=
EXTT5=
EXTT6=
EXTT7=
EXTT8=
EXTT9=
EXTT10=
PLAYORDER=
